<?xml version="1.0" standalone="no"?>
<!DOCTYPE svg PUBLIC "-//W3C//DTD SVG 20010904//EN"
 "http://www.w3.org/TR/2001/REC-SVG-20010904/DTD/svg10.dtd">
<svg version="1.0" xmlns="http://www.w3.org/2000/svg"
 width="800.000000pt" height="800.000000pt" viewBox="0 0 800.000000 800.000000"
 preserveAspectRatio="xMidYMid meet">
<metadata>
Created by potrace 1.11, written by Peter Selinger 2001-2013
</metadata>
<g transform="translate(0.000000,800.000000) scale(0.100000,-0.100000)"
fill="#000000" stroke="none">
<path d="M3910 7875 c-8 -22 -14 -42 -15 -45 0 -3 -6 -18 -12 -35 -6 -16 -57
-170 -113 -341 l-101 -312 -45 -7 c-25 -3 -56 -8 -67 -11 -12 -2 -34 -6 -48
-9 -312 -57 -699 -242 -971 -462 -421 -341 -698 -827 -713 -1250 -2 -70 -4
-74 -46 -120 -91 -101 -133 -125 -209 -126 -92 0 -188 73 -275 208 -33 52
-165 307 -165 319 0 8 -120 250 -150 305 -43 75 -114 166 -155 197 -36 27 -97
41 -140 30 -40 -10 -104 -74 -129 -130 -13 -28 -29 -82 -36 -121 -21 -109 -18
-617 4 -653 2 -4 7 -29 10 -57 21 -154 78 -331 167 -510 86 -173 175 -300 300
-424 163 -164 328 -268 557 -354 52 -20 96 -38 99 -41 5 -4 -31 -62 -47 -76
-3 -3 -35 -45 -72 -95 -231 -314 -325 -559 -333 -865 -2 -102 17 -149 80 -192
70 -48 153 -44 250 13 38 22 36 19 -29 -51 -156 -171 -253 -351 -307 -571 -18
-76 -29 -98 -84 -172 -104 -141 -168 -319 -169 -469 -1 -82 1 -88 30 -125 43
-53 115 -106 209 -152 86 -43 129 -56 215 -66 30 -4 59 -9 63 -12 11 -6 322
-6 345 1 9 2 40 7 67 11 80 10 126 24 192 61 l63 35 67 -57 c37 -32 98 -80
135 -107 38 -27 68 -51 68 -52 0 -2 -33 -22 -73 -46 -163 -96 -271 -199 -323
-309 -51 -106 -60 -146 -63 -272 l-2 -85 83 -31 c84 -31 168 -56 223 -67 58
-11 71 -14 140 -24 40 -5 150 -7 255 -4 278 8 345 7 460 -3 125 -10 399 -10
490 1 105 12 113 13 155 19 44 6 74 12 120 22 46 11 86 11 127 2 20 -4 58 -10
85 -13 26 -3 62 -8 78 -11 82 -14 321 -28 460 -26 129 2 494 2 680 0 119 -1
266 7 333 18 166 28 223 40 320 66 107 30 115 35 114 68 -3 104 -42 252 -90
343 -45 87 -151 197 -255 264 -68 44 -75 52 -61 64 18 15 168 199 181 224 9
15 19 12 104 -28 60 -29 125 -51 179 -61 47 -9 99 -19 115 -22 66 -13 330 -7
416 10 327 62 428 171 396 424 -14 108 -97 308 -172 413 -18 25 -35 64 -39 85
-18 126 -57 287 -81 341 -8 17 -15 35 -15 40 0 38 -96 190 -168 265 -30 32
-50 58 -44 58 7 0 12 -4 12 -10 0 -5 9 -10 19 -10 11 0 22 -4 25 -8 9 -16 104
-13 136 3 99 51 128 150 95 325 -54 289 -116 426 -322 712 -125 176 -151 215
-140 216 52 3 234 69 341 123 102 51 210 118 260 160 281 238 440 503 516 859
29 136 37 453 14 599 -26 172 -70 319 -136 456 -84 176 -232 210 -346 79 -46
-51 -102 -162 -132 -259 -12 -38 -25 -81 -30 -95 -7 -22 -28 -129 -45 -240
-35 -225 -82 -360 -140 -402 -55 -41 -179 -43 -268 -7 -81 34 -180 104 -271
189 -81 78 -82 79 -95 147 -32 177 -147 438 -284 647 -255 387 -582 658 -986
821 -164 66 -392 122 -556 137 -27 3 -32 9 -52 68 -29 86 -209 653 -217 685
-2 6 -9 -8 -16 -30z m-1824 -4707 c15 -29 33 -64 40 -78 18 -33 12 -38 -106
-89 -52 -23 -134 -63 -182 -90 l-88 -49 83 82 c76 75 178 200 206 254 6 12 13
22 15 22 2 0 16 -24 32 -52z m4089 -183 l100 -100 -121 61 c-67 34 -147 69
-179 79 -31 10 -59 23 -61 30 -3 6 14 44 37 83 l42 72 40 -62 c23 -35 86 -108
142 -163z"/>
</g>
</svg>
